<?xml version="1.0" encoding="UTF-8" standalone="no"?>
<!-- Created with Inkscape (http://www.inkscape.org/) -->

<svg
   version="1.1"
   id="svg1"
   width="832"
   height="391"
   viewBox="0 0 832 391"
   sodipodi:docname="worldofgeek-logo-1.svg"
   inkscape:version="1.4.2 (f4327f4, 2025-05-13)"
   xmlns:inkscape="http://www.inkscape.org/namespaces/inkscape"
   xmlns:sodipodi="http://sodipodi.sourceforge.net/DTD/sodipodi-0.dtd"
   xmlns="http://www.w3.org/2000/svg"
   xmlns:svg="http://www.w3.org/2000/svg">
  <defs
     id="defs1" />
  <sodipodi:namedview
     id="namedview1"
     pagecolor="#ffffff"
     bordercolor="#000000"
     borderopacity="0.25"
     inkscape:showpageshadow="2"
     inkscape:pageopacity="0.0"
     inkscape:pagecheckerboard="0"
     inkscape:deskcolor="#d1d1d1"
     inkscape:zoom="1.4002558"
     inkscape:cx="343.1516"
     inkscape:cy="68.558904"
     inkscape:window-width="2880"
     inkscape:window-height="1514"
     inkscape:window-x="3829"
     inkscape:window-y="-11"
     inkscape:window-maximized="1"
     inkscape:current-layer="g1" />
  <g
     inkscape:groupmode="layer"
     inkscape:label="Image"
     id="g1">
    <path
       style="fill:#000000"
       d="M 57.836372,368.08116 C 50.615873,365.77198 45.82963,362.82461 39.229074,356.62281 29.269228,347.26465 25,336.57654 25,321 c 0,-15.5663 4.254945,-26.22682 14.229074,-35.65016 11.094217,-10.48156 20.278183,-13.74492 37.135572,-13.19546 10.345593,0.3372 11.667282,0.61754 18.635354,3.95262 17.75804,8.49941 27.80558,24.47074 27.92757,44.393 0.13743,22.44163 -12.36467,40.57286 -32.699989,47.42333 -8.121111,2.73581 -24.086986,2.8136 -32.391209,0.15783 z M 81.5,367.95277 c 9.450548,-1.36035 18.352077,-5.71622 25.37939,-12.41913 C 116.58942,346.27184 121,335.48523 121,321 c 0,-13.9783 -4.17883,-24.65504 -13.26089,-33.88105 -16.006896,-16.26061 -44.92282,-18.25138 -63.215213,-4.35218 -16.659249,12.65829 -22.602509,36.20375 -14.503986,57.46055 5.509538,14.4613 18.98279,24.91765 35.743475,27.73987 6.657491,1.12102 7.856235,1.11992 15.736614,-0.0144 z M 65.640066,346.42672 c -7.115574,-2.27138 -14.031474,-9.52542 -16.203004,-16.99522 -4.337888,-14.92181 3.349499,-29.98792 17.382727,-34.06749 12.624134,-3.66993 25.780383,3.1668 30.654657,15.92991 2.17462,5.69416 1.753206,16.50471 -0.853133,21.88553 -5.60212,11.56563 -18.701945,17.16699 -30.981247,13.24727 z m 15.501491,-1.58728 C 90.745062,341.96216 97,332.6118 97,321.13302 c 0,-10.55334 -4.132259,-18.1192 -12.122592,-22.19556 -15.535294,-7.92552 -32.992531,2.2124 -34.614679,20.10174 -1.604295,17.69245 14.11182,30.82376 30.878828,25.80024 z M 138,331.5 V 296 h -7 -7 V 285.5 275 h 6.93554 6.93554 l 0.31446,-17.25 c 0.35873,-19.67833 1.07527,-22.13949 8.57093,-29.43901 C 153.11128,222.12247 159.69527,220 172.53751,220 L 183,220 v 11.5 11.5 h -6.03212 c -6.87216,0 -12.30784,1.89819 -13.88739,4.8496 C 162.47094,248.98856 162,255.34538 162,262.43426 V 275 H 172.5 183 V 285.5 296 H 172.5 162 V 331.5 367 H 150 138 Z M 160.23737,330.25 160.5,294.5 171.25,294.21617 182,293.93234 V 284.96617 276 h -11 -11 l 0.0147,-12.75 c 0.009,-8.12704 0.46263,-13.62151 1.25,-15.1536 2.32273,-4.51963 6.26696,-6.50456 13.76723,-6.92836 L 182,240.77431 v -10.03077 -10.03077 l -10.3443,0.52795 c -11.83289,0.60392 -17.08356,2.44071 -23.46967,8.21018 -7.44029,6.72185 -8.62347,10.62578 -9.03136,29.7991 L 138.79834,276 H 132.39917 126 v 9 9 h 6.5 6.5 v 36 36 h 10.48737 10.48737 z m 96.1353,34.77126 c -24.67543,-6.46932 -44.42218,-26.87773 -49.92095,-51.59368 -2.54509,-11.43968 -1.63249,-32.25115 1.85324,-42.2625 7.10125,-20.39548 23.3616,-36.52621 44.19504,-43.84274 7.53957,-2.64783 8.94963,-2.80822 24.5,-2.78688 15.2404,0.0209 17.11072,0.22841 24.5,2.718 11.17836,3.76622 19.79959,9.07935 27.98467,17.24654 7.35108,7.33502 13.45189,16.96344 11.79703,18.6183 -1.27556,1.27556 -21.35567,8.8817 -23.44757,8.8817 -0.91905,0 -2.57937,-1.4625 -3.6896,-3.25 -2.25162,-3.62521 -8.0603,-9.35472 -12.68471,-12.51183 -11.82902,-8.07574 -33.68127,-8.4277 -46.95982,-0.75634 -5.85959,3.38523 -15.2176,13.65965 -18.02346,19.78844 -11.52433,25.17247 1.39727,56.81828 26.28344,64.3698 10.86337,3.2964 26.28561,1.18097 35.84617,-4.91693 7.43119,-4.73975 14.85134,-13.74622 16.85127,-20.45384 l 0.66511,-2.23071 L 293.81126,311.7693 271.5,311.5 V 300 288.5 h 37.5 37.5 l -0.0863,10 c -0.10009,11.6034 -1.99727,19.86177 -6.88458,29.96835 -8.73541,18.06418 -26.49896,32.48494 -45.54433,36.97369 -9.27896,2.18694 -28.48529,1.97207 -37.61216,-0.42078 z M 294,363.38626 c 11.35745,-2.56375 20.48389,-7.82738 30.10076,-17.36045 13.72248,-13.6029 19.58088,-26.60389 20.62711,-45.77581 L 345.28723,290 H 309.14361 273 v 10.5 10.5 h 22.5 c 17.33854,0 22.49776,0.28675 22.49023,1.25 -0.0208,2.66476 -4.97762,11.7313 -8.64306,15.80915 -9.38593,10.44196 -22.03566,15.48725 -37.03252,14.77024 -7.26444,-0.34732 -10.01024,-0.97449 -15.33195,-3.50198 -14.72875,-6.99526 -23.64513,-19.56595 -26.02752,-36.69468 -2.645,-19.01686 5.62643,-37.73877 21.04418,-47.63232 19.35405,-12.41946 47.4349,-8.09801 61.22236,9.42169 2.19788,2.79284 4.38711,5.22456 4.86495,5.40381 0.97783,0.36681 19.98947,-6.55871 21.18098,-7.71576 1.29783,-1.26029 -6.58555,-12.29739 -13.03771,-18.2534 -15.05309,-13.89558 -36.13193,-20.36005 -58.227,-17.85708 -16.6642,1.88774 -30.69509,8.59617 -42.00563,20.08368 -14.76215,14.99313 -21.69724,36.15036 -19.03278,58.06422 2.17188,17.86252 7.96153,30.0174 19.94038,41.8631 17.26771,17.07577 41.09164,23.24544 67.09509,17.37559 z m 92,1.79004 c -21.4209,-7.14114 -34,-24.56695 -34,-47.10013 0,-22.40417 12.37622,-40.12852 32.83189,-47.01954 8.48792,-2.85937 22.87555,-2.85019 31.39569,0.02 20.61329,6.94411 33.68137,26.56177 32.58973,48.92333 l -0.31731,6.5 -35.25,0.26279 c -28.62787,0.21343 -35.25,0.514 -35.25,1.59996 0,0.73545 1.34654,3.19601 2.99231,5.46793 9.09596,12.55661 26.61851,14.47401 38.3269,4.19391 l 3.67375,-3.22559 10.22578,3.12276 c 5.62418,1.71752 10.65667,3.55365 11.18331,4.08029 3.34672,3.34672 -11.91001,17.40303 -24.40205,22.48206 -6.76786,2.75169 -26.61048,3.15566 -34,0.69219 z m 29.47477,-1.35475 c 7.35265,-1.88625 15.9054,-6.99736 21.81454,-13.03634 3.20229,-3.27265 5.65205,-6.46114 5.44392,-7.08553 -0.20814,-0.6244 -4.68675,-2.40887 -9.95248,-3.96551 l -9.57405,-2.83023 -2.85335,2.68727 c -7.12925,6.71429 -20.18385,8.78909 -29.46608,4.68312 -5.65429,-2.50116 -11.53014,-8.25845 -13.95478,-13.67321 L 375.09608,326.5 411.04804,326.23753 447,325.97505 v -7.77743 c 0,-14.13972 -3.83784,-23.90057 -13.36036,-33.97966 -14.61172,-15.46575 -41.28432,-18.2482 -59.13964,-6.16938 -13.47378,9.11478 -20.51177,22.81519 -20.48813,39.88292 0.0193,13.93711 3.44112,23.36214 11.6793,32.16943 12.47947,13.34156 31.17561,18.49431 49.7836,13.72062 z M 376,308.19578 c 0,-2.98704 5.6324,-10.91695 10.00254,-14.08266 6.95947,-5.04141 16.20404,-5.88944 25.13637,-2.30582 4.00954,1.60862 9.74981,7.05425 11.92,11.30818 C 426.73808,310.32724 427.81037,310 400.5,310 377.55285,310 376,309.88565 376,308.19578 Z m 47,-0.74544 c 0,-1.56868 -3.22384,-6.32149 -6.16468,-9.08839 -9.53075,-8.96703 -21.94942,-9.41483 -31.36056,-1.13082 C 381.58677,300.65348 378,305.55717 378,307.45034 378,307.75265 388.125,308 400.5,308 c 12.375,0 22.5,-0.24735 22.5,-0.54966 z m 64,57.72596 c -21.4209,-7.14114 -34,-24.56695 -34,-47.10013 0,-22.40417 12.37622,-40.12852 32.83189,-47.01954 8.48792,-2.85937 22.87555,-2.85019 31.39569,0.02 20.61329,6.94411 33.68137,26.56177 32.58973,48.92333 l -0.31731,6.5 -35.25,0.26279 c -28.62787,0.21343 -35.25,0.514 -35.25,1.59996 0,0.73545 1.34654,3.19601 2.99231,5.46793 9.09596,12.55661 26.61851,14.47401 38.3269,4.19391 l 3.67375,-3.22559 10.22578,3.12276 c 5.62418,1.71752 10.65667,3.55365 11.18331,4.08029 3.34672,3.34672 -11.91001,17.40303 -24.40205,22.48206 -6.76786,2.75169 -26.61048,3.15566 -34,0.69219 z m 29.47477,-1.35475 c 7.35265,-1.88625 15.9054,-6.99736 21.81454,-13.03634 3.20229,-3.27265 5.65205,-6.46114 5.44392,-7.08553 -0.20814,-0.6244 -4.68675,-2.40887 -9.95248,-3.96551 l -9.57405,-2.83023 -2.85335,2.68727 c -7.12925,6.71429 -20.18385,8.78909 -29.46608,4.68312 -5.65429,-2.50116 -11.53014,-8.25845 -13.95478,-13.67321 L 476.09608,326.5 512.04804,326.23753 548,325.97505 v -7.77743 c 0,-14.13972 -3.83784,-23.90057 -13.36036,-33.97966 -14.61172,-15.46575 -41.28432,-18.2482 -59.13964,-6.16938 -13.47378,9.11478 -20.51177,22.81519 -20.48813,39.88292 0.0193,13.93711 3.44112,23.36214 11.6793,32.16943 12.47947,13.34156 31.17561,18.49431 49.7836,13.72062 z M 477,308.19578 c 0,-2.98704 5.6324,-10.91695 10.00254,-14.08266 6.95947,-5.04141 16.20404,-5.88944 25.13637,-2.30582 4.00954,1.60862 9.74981,7.05425 11.92,11.30818 C 527.73808,310.32724 528.81037,310 501.5,310 478.55285,310 477,309.88565 477,308.19578 Z m 47,-0.74544 c 0,-1.56868 -3.22384,-6.32149 -6.16468,-9.08839 -9.53075,-8.96703 -21.94942,-9.41483 -31.36056,-1.13082 C 482.58677,300.65348 479,305.55717 479,307.45034 479,307.75265 489.125,308 501.5,308 c 12.375,0 22.5,-0.24735 22.5,-0.54966 z m 123.29855,57.59014 c -9.29547,-5.66778 -8.31664,-20.87354 1.68585,-26.18887 4.57226,-2.4297 7.63611,-2.33603 13.03083,0.39839 5.42267,2.74859 8.32183,7.4076 8.23378,13.23188 -0.1348,8.91724 -5.82009,14.51064 -14.74901,14.51064 -3.19901,0 -6.15315,-0.70312 -8.20145,-1.95204 z m 15.43752,-1.65257 c 8.00865,-5.07066 7.62744,-16.5711 -0.73607,-22.20628 -9.54246,-6.42953 -22.08102,3.37632 -18.99095,14.85197 2.26336,8.40548 12.21008,12.11365 19.72702,7.35431 z M 556,290.5 V 217 h 11.98981 l 11.98981,0 0.26019,45.23551 0.26019,45.2355 13.5,-17.67859 13.5,-17.6786 14.19098,-0.0569 c 7.80504,-0.0313 14.39187,0.28059 14.6374,0.69309 0.24553,0.4125 -6.73881,9.975 -15.52075,21.25 -8.78195,11.275 -16.19433,21.0362 -16.47197,21.69157 -0.27763,0.65536 7.63326,11.30953 17.57977,23.67593 C 631.86195,351.73391 640,362.3352 640,362.92594 640,363.64161 635.19733,364 625.60701,364 H 611.21403 L 595.60701,344.33244 580,324.66488 V 344.33244 364 h -12 -12 z m 23.23011,51.49971 0.26989,-21.0003 16.5,20.95798 16.5,20.95798 12.75,0.0423 c 7.0125,0.0233 12.75,-0.13564 12.75,-0.35314 0,-0.21751 -8.29069,-10.67524 -18.42376,-23.2394 -10.55902,-13.0923 -18.09162,-23.27534 -17.64569,-23.85454 0.42794,-0.55583 7.81864,-10.10359 16.42376,-21.21725 C 626.95944,283.17969 634,273.84219 634,273.54335 634,273.24451 628.45326,273 621.67391,273 H 609.34782 L 594.42391,292.38266 579.5,311.76532 579.24021,264.88266 578.98042,218 H 568.49021 558 v 72.5 72.5 h 10.48011 10.48011 z M 682,328.5 V 293 h -7 -7 V 282.5 272 h 6.93554 6.93554 l 0.31446,-17.25 c 0.35213,-19.31657 1.09201,-22.02755 7.85839,-28.79393 6.56314,-6.56314 11.86151,-8.41078 25.20607,-8.78982 L 727,216.8325 V 228.41625 240 h -6.54966 c -7.02011,0 -11.69651,1.72293 -13.4207,4.94461 C 706.46334,246.00276 706,252.5231 706,259.43426 V 272 H 716.5 727 V 282.5 293 H 716.5 706 V 328.5 364 H 694 682 Z M 704.23737,327.25 704.5,291.5 715.25,291.21617 726,290.93234 V 281.96617 273 h -11.07558 -11.07559 l 0.32559,-13.98362 0.32558,-13.98362 3.16389,-3.16104 c 2.86517,-2.86258 3.88015,-3.20701 10.75,-3.64789 L 726,237.73699 v -10.01391 -10.01391 l -9.75,0.57686 c -5.3625,0.31728 -11.83503,1.30714 -14.38341,2.19969 -6.24521,2.18736 -12.38341,7.64773 -15.59898,13.87643 -2.4919,4.82691 -2.67802,6.15155 -3.07541,21.88785 L 682.76921,273 H 676.38461 670 v 9 9 h 6.5 6.5 v 36 36 h 10.48737 10.48737 z M 730,318 v -46 h 12 12 v 3.49834 3.49833 l 4.86476,-3.49497 C 765.25429,270.91127 770.92488,269 778.15475,269 h 5.9033 L 783.77903,282.25 783.5,295.5 781,295 c -1.375,-0.275 -5.04826,-0.47327 -8.1628,-0.44059 -7.07114,0.0742 -12.76925,3.5125 -16.06143,9.69171 -2.16758,4.06841 -2.27811,5.42755 -2.60216,31.99888 L 753.83519,364 H 741.91759 730 Z m 23,17.40113 c 0,-30.91041 0.12267,-31.56891 7.04612,-37.82383 4.94135,-4.46421 10.87616,-6.14659 17.20388,-4.8769 l 4.75,0.95312 v -11.94031 -11.9403 l -4.75,0.66624 c -8.46788,1.18771 -14.05147,3.57683 -19.22024,8.224 L 753,283.18534 V 278.09267 273 H 742.5 732 v 45 45 H 742.5 753 Z M 351.36868,200.80645 c -1.50886,-0.40353 -4.79657,-0.83014 -7.30603,-0.94802 -2.50946,-0.11788 -5.23765,-0.54531 -6.06265,-0.94985 -0.825,-0.40454 -4.65,-1.70347 -8.5,-2.88652 -7.84222,-2.4098 -15.83182,-6.67614 -15.00569,-8.01285 0.29848,-0.48296 4.02187,-2.22701 8.2742,-3.87566 43.15493,-16.73144 69.05642,-30.87158 109.23149,-59.63167 8.525,-6.10279 16.13274,-11.48228 16.9061,-11.95442 1.17835,-0.7194 1.30911,0.34101 0.8073,6.54705 -2.51216,31.06837 -22.32683,60.00259 -49.93985,72.92428 -6.86817,3.214 -17.89959,6.74327 -23.77355,7.60583 -8.11417,1.19154 -22.08803,1.86201 -24.63132,1.18183 z M 377,197.9623 c 29.2523,-6.05316 49.73818,-21.55222 62.33601,-47.16173 4.86449,-9.88877 7.95534,-20.24991 9.15847,-30.70101 l 0.73682,-6.40045 -3.36565,2.38611 c -1.85111,1.31235 -6.96565,5.00673 -11.36565,8.20972 -4.4,3.20299 -11.14933,7.93445 -14.99852,10.51434 -3.84918,2.5799 -7.44918,5.05383 -8,5.49763 -9.11035,7.34035 -41.05068,24.93976 -62.00148,34.16337 -6.6,2.90565 -16.8375,7.18697 -22.75,9.51404 -5.9125,2.32707 -10.75,4.4358 -10.75,4.68607 0,0.25027 2.93401,1.78538 6.52002,3.41136 15.65141,7.09669 37.30688,9.43417 54.47998,5.88055 z m 259.91182,2.59317 c -18.46615,-5.09405 -34.3054,-21.98617 -39.39679,-42.01557 -1.99547,-7.85013 -1.99191,-26.25178 0.007,-34.0798 4.69788,-18.40133 18.16659,-33.903772 35.24284,-40.564373 4.31529,-1.683183 8.4929,-2.344514 16.87089,-2.670726 12.84807,-0.500262 19.05221,0.848985 29.11465,6.331714 L 685,90.962158 V 53.481079 16 H 699.5 714 V 107.5 199 H 699.5 685 v -3.48108 -3.48108 l -6.25,3.39875 c -3.4375,1.86932 -8.69418,4.1108 -11.6815,4.98108 -6.55446,1.90948 -23.45436,1.9867 -30.15668,0.1378 z m 31.47138,-2.59555 c 3.36424,-1.04099 8.5918,-3.45838 11.6168,-5.37197 l 5.5,-3.47926 0.30479,4.44566 L 686.10958,198 H 699.05479 712 V 107.5 17 l -12.98826,0 -12.98825,0 -0.26175,38.489863 L 685.5,93.979725 681,90.98238 C 670.81152,84.196072 657.08765,81.190795 644.33089,82.952516 622.90948,85.910834 605.18138,102.48292 599.35031,125 c -2.03851,7.87184 -2.25603,24.22035 -0.42577,32 2.26848,9.64235 7.66499,19.52739 14.77538,27.06478 14.14826,14.9979 34.4488,20.15631 54.68328,13.89514 z m -24.35603,-25.69648 c -6.39347,-2.25654 -14.17191,-10.36162 -16.87338,-17.58194 -2.57343,-6.8781 -2.85276,-16.99626 -0.66946,-24.25 2.30122,-7.64557 8.00053,-14.34208 15.54654,-18.2667 6.09621,-3.1706 6.9303,-3.33992 14.46913,-2.93733 9.60009,0.51266 14.26874,2.62824 20.34347,9.21855 6.54511,7.1006 8.50782,12.37957 8.57144,23.05398 0.0457,7.6682 -0.33171,9.82668 -2.55045,14.58648 -5.37298,11.52651 -15.22622,17.94476 -27.36446,17.8248 -3.85,-0.038 -9.01277,-0.77957 -11.47283,-1.64784 z m 23.48011,-2.61475 c 5.75059,-2.67791 10.85383,-8.04237 13.88706,-14.59788 3.07562,-6.64712 2.92139,-20.65613 -0.30042,-27.28703 -2.95419,-6.08013 -9.12136,-12.41895 -14.42586,-14.82739 -6.15383,-2.79408 -16.70323,-2.59897 -23.20616,0.4292 -6.27114,2.92023 -12.83185,10.22143 -14.97043,16.6601 -2.08621,6.28097 -2.06498,16.73157 0.0469,23.08985 2.12974,6.41206 10.42496,15.45146 15.96162,17.39358 6.48567,2.275 17.12896,1.87696 23.00728,-0.86043 z M 78.265524,197.25 C 74.179926,186.60577 21.355315,29.305442 21.679838,28.75 21.920846,28.3375 29.410778,28 38.324131,28 l 16.206098,0 18.42868,58.006205 C 83.094683,117.90962 91.673374,143.67212 92.022667,143.25621 92.37196,142.84029 99.100734,121.575 106.9755,96 114.85026,70.425 122.81824,44.6625 124.68211,38.75 L 128.07097,28 h 13.46451 C 148.94097,28 155,28.16396 155,28.364355 c 0,0.660882 35.92147,115.890785 36.21393,116.168055 0.15734,0.14918 8.60589,-26.00959 18.77455,-58.130593 L 228.47697,28 l 16.09485,0 c 8.85216,0 16.34979,0.254941 16.66138,0.566535 0.3116,0.311595 -6.62946,21.799095 -15.42456,47.75 C 237.01354,102.26744 224.11249,140.375 217.13964,161 l -12.67791,37.5 -13.49145,0.27666 -13.49146,0.27666 -16.39976,-51.77666 C 152.05919,118.7995 143.94628,93.324351 143.05038,90.665225 L 141.42147,85.83045 123.47826,142.41522 105.53506,199 H 92.236144 c -11.743077,0 -13.377496,-0.20473 -13.97062,-1.75 z m 27.605726,-5.5 c 1.11887,-3.4375 9.30391,-29.2 18.18897,-57.25 8.88507,-28.05 16.49775,-51.626909 16.91707,-52.393131 0.87876,-1.605724 1.45026,0.07577 20.52605,60.393131 7.47948,23.65 14.51271,45.8125 15.62939,49.25 l 2.03033,6.25 h 11.75348 11.75347 l 28.53088,-84.25 28.53089,-84.25 -14.50503,-0.27753 c -7.97776,-0.152641 -14.6991,-0.08346 -14.9363,0.153746 -0.2372,0.237202 -8.96735,27.342353 -19.40034,60.233669 -10.43298,32.891315 -19.1657,59.999035 -19.40604,60.239385 -0.62282,0.62281 0.17241,3.08157 -19.86098,-61.407345 L 153.31287,29.5 141.40643,29.238185 129.5,28.976371 111.11453,88.738185 C 101.00252,121.60718 92.421526,148.846 92.04565,149.26888 91.669774,149.69176 82.843236,123.2178 72.43112,90.437839 62.019004,57.657882 53.240731,30.411908 52.923846,29.89123 52.591057,29.34442 46.206161,29.061854 37.807957,29.222271 L 23.268223,29.5 51.799105,113.75 80.329988,198 H 92.083463 103.83694 Z M 484,141.5 V 84 h 14.5 14.5 v 5.62736 5.62736 l 4.57485,-4.216953 C 524.89075,84.294212 531.8649,81.58149 542,81.53717 L 550.5,81.5 V 97 112.5 l -2.5,-0.22721 c -1.375,-0.12497 -4.75,-0.51201 -7.5,-0.86011 -10.0069,-1.26665 -19.73327,3.94473 -24.42578,13.08732 l -2.56629,5 -0.34239,34.75 -0.34238,34.75 H 498.41158 484 Z m 28.21353,21.25 c 0.31645,-38.93957 0.29482,-38.79898 7.02992,-45.6878 5.02526,-5.13996 10.34867,-7.38184 17.75655,-7.47791 3.575,-0.0464 7.7375,0.26178 9.25,0.68476 L 549,111.0381 V 96.519052 c 0,-16.61765 0.92968,-15.396716 -10.32077,-13.554168 -8.37434,1.371513 -15.91221,5.17286 -21.66502,10.925667 L 512,98.904762 V 91.952381 85 H 498.5 485 v 56.5 56.5 h 13.46353 13.46353 z M 556,107.5 V 16 H 570.5 585 V 107.5 199 H 570.5 556 Z m 28,0 V 17 H 570.5 557 V 107.5 198 H 570.5 584 Z M 254.45862,191.7169 C 253.65638,191.26795 253,191.15713 253,191.47063 c 0,1.10142 -7.52547,-3.30329 -9.7896,-5.72992 -6.84801,-7.33948 -1.22787,-24.15083 13.0034,-38.89662 3.45741,-3.58241 8.49272,-8.34276 11.18957,-10.57856 l 4.90336,-4.06507 -1.27244,-7.85023 C 270.33444,120.0326 269.76552,114.25 269.77003,111.5 c 0.0101,-6.17609 2.62793,-21.542194 4.64299,-27.253476 0.82404,-2.335588 1.18072,-4.253415 0.79262,-4.261837 -0.3881,-0.0084 -0.25564,-0.345922 0.29436,-0.75 0.55,-0.404078 2.05636,-2.974511 3.34748,-5.712073 7.89768,-16.745579 24.30429,-33.50572 41.13004,-42.01632 24.052,-12.165695 54.46297,-12.362548 79.74246,-0.51618 7.39276,3.464367 16.76959,9.388914 19.78002,12.497578 0.55,0.567948 2.17376,2.059118 3.60835,3.313711 l 2.60835,2.281079 5.33301,-2.102076 c 13.72137,-5.408461 34.50668,-8.245894 43.89897,-5.992717 6.08904,1.460739 11.73214,6.406732 12.23741,10.725688 0.40761,3.484197 -1.61054,9.046097 -6.08119,16.759395 -3.35657,5.791151 -5.16826,8.05415 -13.6049,16.993971 C 454.9322,98.784119 423.9967,122.53801 401.73924,135.96129 398.58266,137.865 396,139.7775 396,140.21129 396,140.64508 395.38569,141 394.63486,141 c -0.75083,0 -2.43833,0.83204 -3.75,1.84898 -1.31167,1.01694 -9.13486,5.49456 -17.38486,9.95027 -8.25,4.45571 -15.5625,8.59141 -16.25,9.19045 -0.6875,0.59903 -1.25,0.8626 -1.25,0.5857 0,-0.48496 -13.93045,6.01445 -17,7.93153 -0.825,0.51526 -1.95,1.02747 -2.5,1.13826 -1.91765,0.38626 -21.93943,8.47424 -22.96572,9.2772 -0.56886,0.44507 -2.15928,1.04848 -3.53428,1.34091 -1.375,0.29243 -8.31599,2.19377 -15.42442,4.2252 -7.10842,2.03143 -13.85842,3.8942 -15,4.13948 -4.7391,1.01826 -23.769,1.84328 -25.11696,1.08892 z m 21.10772,-1.77974 c 10.55893,-1.89131 33.08298,-8.81688 48.29238,-14.84865 40.45492,-16.0437 79.15765,-38.97569 123.64128,-73.25943 20.02091,-15.430205 36.6757,-36.26458 38.22536,-47.818159 0.4701,-3.504863 0.14402,-4.341545 -2.86465,-7.350209 C 479.3752,43.175202 472.73554,41 465.58177,41 c -8.98292,0 -37.11613,6.812322 -38.79089,9.393026 -0.45064,0.694411 -2.09091,-0.220821 -4.5,-2.510886 C 410.75255,36.913853 398.91778,30.336484 384,26.601355 365.53925,21.979133 349.58361,22.372927 332.38227,27.87531 326.54144,29.74368 316.05743,34.572351 315,35.881145 c -0.275,0.34037 -2.16142,1.463171 -4.19204,2.495112 -9.06222,4.605327 -23.47214,21.045159 -30.248,34.508997 -7.3685,14.641441 -10.61432,32.021886 -8.7102,46.640726 0.64288,4.93571 1.42145,9.90729 1.73015,11.04795 0.4439,1.64024 -0.61751,2.98336 -5.07567,6.4228 -16.64507,12.84157 -29.2212,32.90953 -26.98995,43.06834 1.94132,8.83876 16.40731,13.03262 34.05205,9.87209 z m -0.18804,-20.37408 c -7.51967,-3.27274 -8.55064,-11.43646 -2.69442,-21.33583 2.02614,-3.42499 4.22271,-6.22725 4.88129,-6.22725 0.65857,0 1.70105,2.00017 2.31662,4.44482 0.61557,2.44465 2.18336,5.68197 3.48399,7.19403 6.50439,7.56181 34.05815,2.15021 64.13422,-12.59604 23.38675,-11.4665 44.31022,-24.70442 65.11637,-41.198026 11.93639,-9.462304 18.02389,-15.668428 21.96439,-22.392378 2.26158,-3.859096 2.38323,-4.650904 1.39321,-9.06856 -0.5966,-2.662153 -2.17412,-6.268538 -3.50559,-8.01419 -2.89443,-3.794799 -2.118,-4.372692 5.86341,-4.364079 C 449.01124,56.017101 455,59.767431 455,66.443687 c 0,7.985653 -15.25373,26.565062 -34.65009,42.204633 -6.26218,5.04929 -31.35353,22.09879 -39.46825,26.81856 C 366.1496,144.0355 354.03024,150.2889 344,154.49722 c -3.575,1.49994 -8.975,3.77404 -12,5.05355 -6.54909,2.77012 -23.60445,7.77023 -33.81538,9.91364 -8.94354,1.87736 -18.62325,1.91924 -22.80632,0.0987 z m 20.74071,-1.02598 C 338.30495,161.17353 402.42283,126.47454 435.5,93.107608 c 9.42363,-9.506179 16.85554,-19.703814 18.16967,-24.93135 1.48446,-5.905083 -4.51191,-10.452769 -13.8831,-10.529021 -3.14633,-0.0256 -5.94204,0.174904 -6.21271,0.445567 -0.27066,0.270664 0.60042,2.723009 1.93574,5.449656 1.33532,2.726647 2.44193,5.940745 2.45913,7.14244 0.0849,5.931566 -6.50085,15.143191 -17.268,24.153126 -3.9604,3.314059 -8.50822,7.181254 -10.10627,8.593764 -1.59805,1.41252 -3.17764,2.56821 -3.51022,2.56821 -0.33257,0 -1.72508,1.02134 -3.09446,2.26965 -3.44343,3.13897 -17.0209,12.04422 -32.48978,21.30954 -12.71084,7.61334 -37.26018,20.05065 -38.75,19.63171 -0.4125,-0.116 -0.75,0.3141 -0.75,0.95577 0,0.64166 -0.26568,0.90098 -0.59041,0.57625 -0.51313,-0.51313 -5.76398,0.9618 -10.40959,2.92398 -0.825,0.34846 -2.4,0.79488 -3.5,0.99205 -1.1,0.19717 -5.6,1.09482 -10,1.99479 -9.70037,1.9841 -19.99173,1.90931 -23.16258,-0.16831 -2.37628,-1.557 -5.13169,-6.11916 -6.32897,-10.47896 -0.66433,-2.4191 -0.79654,-2.33713 -3.79262,2.35137 -3.62305,5.66963 -4.65145,9.50655 -3.78539,14.12306 1.32037,7.03818 9.2937,8.91793 25.68857,6.0562 z"
       id="path2" />
    <path
       style="fill:#ffffff;fill-opacity:1;stroke:#a4a79e;stroke-width:0.714155;stroke-opacity:1"
       d="M 80.075,195.87482 C 79.743523,194.98129 67.198136,157.99229 52.19636,113.67704 37.194584,69.361792 24.621347,32.317278 24.255832,31.355902 l -0.664572,-1.747956 14.449576,0.193287 14.449575,0.193288 1.886278,5.713242 c 1.037453,3.142283 8.501194,26.303833 16.586089,51.47011 17.024548,52.993197 20.397094,62.775307 21.32344,61.848967 0.687318,-0.68732 12.212672,-37.28063 28.101342,-89.222528 l 9.23162,-30.17925 11.70675,0.184729 11.70676,0.18473 18.37266,58.917808 c 10.10497,32.404791 18.60987,59.480201 18.89979,60.167581 1.23291,2.92314 -0.89418,9.10301 28.08385,-81.592239 l 11.97944,-37.49315 14.49947,-0.193532 c 8.16091,-0.108927 14.39322,0.08161 14.25643,0.435851 -0.13368,0.346161 -12.93716,38.111871 -28.45218,83.9238 l -28.20914,83.29442 -11.54045,0.004 -11.54046,0.004 -3.57809,-11.24795 c -1.96795,-6.18637 -9.08515,-28.60192 -15.81602,-49.81233 -16.32822,-51.453791 -17.29421,-54.275796 -18.57902,-54.275796 -0.78294,0 -5.90965,15.211117 -19.37609,57.489496 l -18.31147,57.4895 -11.521864,0.19628 c -11.415622,0.19448 -11.52742,0.1813 -12.124546,-1.42831 z"
       id="path11" />
    <path
       style="fill:#ffffff;fill-opacity:1;stroke:#a4a79e;stroke-width:0.714155;stroke-opacity:1"
       d="m 252.45388,188.92141 c -5.61914,-1.84951 -9.38502,-4.99405 -10.37245,-8.66107 -2.33718,-8.67966 8.75502,-27.68774 23.44913,-40.18344 9.42186,-8.01224 8.83736,-6.89627 7.54711,-14.40959 -4.87119,-28.36555 4.86014,-56.232418 27.34633,-78.309656 14.111,-13.854363 34.57846,-22.340689 56.01435,-23.224966 23.79576,-0.981627 46.59742,6.960277 63.23077,22.023521 5.43275,4.919922 5.97649,5.116926 9.46761,3.430205 4.05925,-1.961219 20.24523,-6.032128 29.3596,-7.384183 11.60184,-1.721058 20.52576,0.407512 25.25083,6.022933 2.3007,2.734224 2.33999,4.358111 0.24498,10.124542 -4.47095,12.306149 -19.72802,29.918987 -38.35926,44.282124 -56.26034,43.37206 -107.65002,70.49327 -160.32786,84.61398 -7.85611,2.1059 -10.76684,2.53459 -18.92511,2.78731 -8.21509,0.25448 -10.27488,0.09 -13.92603,-1.11171 z m 51.35138,-20.34942 c 24.92604,-6.414 43.46276,-13.91432 68.02666,-27.5249 10.74036,-5.95113 34.28425,-21.2483 45.0589,-29.27614 18.09032,-13.478506 35.12026,-32.72299 38.07527,-43.026506 1.47571,-5.145502 -2.06867,-10.397567 -8.11571,-12.025865 -4.0515,-1.090957 -14.56252,-1.166994 -15.61654,-0.112972 -0.62285,0.622853 -0.15919,2.134415 1.89783,6.18708 3.72998,7.348631 3.74606,10.26812 0.0869,15.779719 -5.25126,7.909672 -13.59455,15.641489 -30.28652,28.066824 -27.99878,20.84203 -62.75094,39.42558 -86.24731,46.12034 -7.32812,2.08798 -17.77638,3.99751 -21.87298,3.99751 -4.4793,0 -8.86455,-1.40967 -10.858,-3.49037 -1.01554,-1.06 -2.58877,-4.00096 -3.49607,-6.53547 -2.20139,-6.14949 -3.28751,-6.24512 -6.92961,-0.61008 -2.98818,4.6233 -5.00569,10.12285 -5.00569,13.6451 0,4.46666 3.419,9.2382 7.58383,10.58396 3.85173,1.2446 19.97412,0.20956 27.69906,-1.77823 z"
       id="path12" />
    <path
       style="fill:#ffffff;fill-opacity:1;stroke:#a4a79e;stroke-width:0.714155;stroke-opacity:1"
       d="m 352.79269,198.80158 c -8.23497,-0.54346 -17.21202,-2.31513 -23.9242,-4.72157 -5.44535,-1.95227 -12.08845,-5.11911 -11.65261,-5.55494 0.15013,-0.15014 7.0112,-3.03578 15.24681,-6.41254 16.62547,-6.81677 37.25802,-16.67099 53.53822,-25.57015 11.48451,-6.27771 29.5684,-18.13301 49.50674,-32.45523 6.80385,-4.88739 12.57641,-8.6804 12.8279,-8.42892 0.77661,0.7766 -1.99534,15.28095 -4.22685,22.11721 -9.06328,27.76552 -28.59299,47.75856 -55.14942,56.45781 -12.78383,4.18767 -22.78753,5.45127 -36.16659,4.56833 z"
       id="path13" />
    <path
       style="fill:#ffffff;fill-opacity:1;stroke:#a4a79e;stroke-width:0.714155;stroke-opacity:1"
       d="M 485.62557,141.40274 V 85.341552 h 12.8548 12.85479 v 6.784475 c 0,3.731462 0.18921,6.784475 0.42046,6.784475 0.23125,0 2.69764,-2.078339 5.48086,-4.618531 5.85772,-5.346231 12.8558,-9.023632 20.30632,-10.670723 6.63882,-1.467647 9.93352,-1.469742 10.49495,-0.0067 0.23841,0.621303 0.43348,6.857435 0.43348,13.858071 v 12.728421 l -3.03516,-0.31625 c -1.66934,-0.17393 -4.06634,-0.44235 -5.32667,-0.5965 -3.50616,-0.42882 -11.38604,0.8925 -14.3441,2.40526 -3.94964,2.01985 -9.30129,7.01582 -10.92532,10.19918 -2.12029,4.1561 -2.7792,12.25051 -2.78525,34.21516 -0.003,10.83734 -0.21628,24.5759 -0.47399,30.53013 l -0.46858,10.82588 h -12.7433 -12.74329 z"
       id="path14" />
    <path
       style="fill:#ffffff;fill-opacity:1;stroke:#a4a79e;stroke-width:0.714155;stroke-opacity:1"
       d="M 557.0411,107.48037 V 17.496804 h 13.21187 13.21187 v 89.983566 89.98356 H 570.25297 557.0411 Z"
       id="path15" />
    <path
       style="fill:#ffffff;fill-opacity:1;stroke:#a4a79e;stroke-width:0.714155;stroke-opacity:1"
       d="m 642.02557,199.23784 c -11.01651,-2.25098 -18.08568,-6.08395 -26.68735,-14.47012 -13.35536,-13.02075 -18.84356,-29.45713 -16.84934,-50.46133 1.40223,-14.76896 6.34524,-25.32461 16.75587,-35.781574 4.94779,-4.969821 7.77767,-7.153315 12.29295,-9.485075 17.77899,-9.181318 38.32849,-7.87247 54.90646,3.497126 l 2.92544,2.00634 0.4668,-10.784692 c 0.25673,-5.931582 0.4668,-23.267024 0.4668,-38.523203 V 17.496804 h 12.49771 12.49772 v 89.983566 89.98356 H 698.80091 686.3032 l -0.0109,-3.39224 c -0.0174,-5.39279 -0.59517,-5.68584 -5.28967,-2.68281 -11.71888,7.49648 -26.31601,10.43596 -38.97702,7.84896 z m 26.78082,-27.82168 c 5.55206,-2.67483 11.07286,-8.35537 14.06302,-14.46992 2.34322,-4.79164 2.36255,-4.9159 2.36255,-15.18642 0,-10.1375 -0.047,-10.45287 -2.23593,-14.99726 -3.14774,-6.53499 -8.56738,-12.28272 -14.19299,-15.0522 -4.06407,-2.00074 -5.47955,-2.29912 -12.4808,-2.63097 l -7.89686,-0.37429 -5.16383,2.5675 c -6.66066,3.31174 -10.09515,6.21459 -13.39699,11.32317 -3.95277,6.1157 -5.23424,11.70204 -4.84598,21.12527 0.28145,6.83106 0.58944,8.34178 2.55849,12.54954 2.35274,5.0277 7.9791,11.60194 12.11868,14.16034 4.50455,2.78397 7.93481,3.45428 16.61293,3.24637 7.36842,-0.17654 8.65332,-0.40901 12.49771,-2.26113 z"
       id="path16" />
    <path
       style="fill:#ffffff;fill-opacity:1;stroke:#a4a79e;stroke-width:0.714155;stroke-opacity:1"
       d="m 683.44657,326.72603 v -35.70777 h -6.42739 -6.4274 v -8.92694 -8.92694 h 6.4274 6.42739 l 0.0127,-11.24794 c 0.0245,-21.73155 1.40594,-27.21382 8.69946,-34.52441 5.93053,-5.94441 11.52806,-7.8096 26.81708,-8.93589 l 6.60593,-0.48664 v 9.63137 9.63138 l -7.5575,0.71607 -7.55751,0.71608 -3.08921,3.14543 -3.08922,3.14542 -0.50071,14.10457 -0.50071,14.10456 h 11.14743 11.14743 v 8.48657 c 0,10.10968 1.00896,9.34329 -12.31917,9.35757 l -9.10548,0.01 -0.002,18.03242 c -8.5e-4,9.91784 -0.21299,25.98633 -0.47143,35.70777 l -0.46988,17.67534 h -9.88382 -9.88383 z"
       id="path17" />
    <path
       style="fill:#ffffff;fill-opacity:1;stroke:#a4a79e;stroke-width:0.714155;stroke-opacity:1"
       d="m 732.00913,317.79909 v -44.63471 h 10.35525 10.35525 v 4.99909 c 0,2.7495 0.18918,4.99909 0.42039,4.99909 0.23121,0 2.05925,-1.43364 4.0623,-3.18586 5.06233,-4.4284 10.62976,-7.20962 17.0904,-8.53753 C 782.77218,269.69631 782,268.66402 782,281.74269 v 11.43492 l -3.03516,-0.54406 c -8.04297,-1.44171 -14.21155,0.19588 -19.8411,5.26726 -6.01433,5.41801 -6.01572,5.42615 -6.2775,36.85946 l -0.23047,27.67352 h -10.30332 -10.30332 z"
       id="path18" />
    <path
       style="fill:#ffffff;fill-opacity:1;stroke:#a4a79e;stroke-width:0.714155;stroke-opacity:1"
       d="m 651.66667,364.34339 c -5.33415,-2.0873 -7.77836,-5.01165 -8.62759,-10.3224 -0.38575,-2.41238 -0.11942,-3.71788 1.37737,-6.75149 4.49281,-9.1058 15.48928,-10.1801 20.96912,-2.04857 4.89231,7.2597 2.75082,15.15318 -5.07528,18.70731 -3.33222,1.51329 -5.56341,1.62046 -8.64362,0.41515 z"
       id="path19" />
    <path
       style="fill:#ffffff;fill-opacity:1;stroke:#a4a79e;stroke-width:0.714155;stroke-opacity:1"
       d="m 558.46941,290.30411 v -72.12968 h 9.88232 9.88233 l 0.47187,26.2452 c 0.25953,14.43487 0.47234,35.48459 0.47292,46.77717 5.8e-4,11.29258 0.24209,20.52208 0.53667,20.50999 0.29459,-0.0121 7.1237,-8.67076 15.1758,-19.24148 l 14.64019,-19.21949 9.99817,-0.031 c 9.6268,-0.0298 13.24107,0.32175 13.1859,1.2826 -0.0143,0.24878 -7.06717,9.58439 -15.67307,20.74581 -13.87532,17.99561 -15.55899,20.46202 -14.86908,21.78174 1.15952,2.21805 10.13819,13.95346 23.2676,30.41153 l 11.67919,14.64018 -11.91453,0.19619 c -7.01467,0.11551 -12.26021,-0.0907 -12.75509,-0.50142 -0.4623,-0.38368 -7.89631,-9.69845 -16.52001,-20.69949 -8.6237,-11.00105 -15.92048,-20.0148 -16.21507,-20.03055 -0.29458,-0.0158 -0.53659,3.74744 -0.5378,8.36267 -10e-4,4.61523 -0.21247,13.93495 -0.46948,20.7105 l -0.4673,12.31918 h -9.88577 -9.88576 z"
       id="path20" />
    <path
       style="fill:#ffffff;fill-opacity:1;stroke:#a4a79e;stroke-width:0.714155;stroke-opacity:1"
       d="m 494.45461,364.51025 c -18.05034,-3.01697 -34.30766,-17.66198 -37.77614,-34.02972 -0.56244,-2.65415 -1.0282,-8.22905 -1.03502,-12.38867 -0.0226,-13.80272 4.17737,-24.75278 12.82611,-33.43963 8.50206,-8.53953 18.01498,-12.78726 30.10143,-13.44096 13.66981,-0.73934 26.18182,3.90447 35.2112,13.06857 9.90074,10.04846 13.95458,20.32326 13.9695,35.40677 0.004,4.32184 -0.22981,5.54855 -1.12426,5.89178 -0.6213,0.23841 -16.85048,0.43348 -36.06483,0.43348 -19.21436,0 -34.9352,0.16985 -34.9352,0.37745 0,0.20759 0.95545,2.27018 2.12322,4.58352 2.67096,5.29115 8.2781,10.85906 13.49485,13.40045 3.58182,1.74492 4.80152,1.95628 11.16275,1.93444 8.45327,-0.029 13.31991,-1.60349 18.70102,-6.05018 2.38572,-1.97144 3.83626,-2.69034 4.84918,-2.40327 6.61556,1.8749 15.50835,4.88302 16.43193,5.55836 0.98411,0.7196 0.65522,1.36076 -2.53297,4.93784 -11.43406,12.82872 -28.65694,18.9587 -45.40277,16.15977 z m 29.73159,-54.84791 c 2.36641,-0.65845 2.54949,-2.19908 0.69364,-5.83686 -2.31413,-4.53607 -7.52594,-9.69519 -12.02743,-11.90583 -3.61189,-1.77377 -4.77268,-1.97262 -11.51542,-1.97262 -6.4269,0 -7.9855,0.23975 -10.90507,1.67743 -5.58221,2.74885 -12.06994,10.15316 -13.70874,15.6455 -0.37676,1.26269 -0.12229,1.75529 1.17562,2.27574 1.8995,0.76168 43.59162,0.86674 46.2874,0.11664 z"
       id="path21" />
    <path
       style="fill:#ffffff;fill-opacity:1;stroke:#a4a79e;stroke-width:0.714155;stroke-opacity:1"
       d="m 395.99909,364.8926 c -0.78557,-0.18172 -3.19585,-0.68241 -5.35617,-1.11263 -15.94256,-3.17491 -30.68147,-16.80212 -34.7571,-32.13548 -1.66809,-6.2757 -1.68006,-20.08476 -0.0228,-26.34312 3.93896,-14.87516 14.12822,-26.14652 28.60518,-31.64305 5.45234,-2.07011 6.42313,-2.20937 15.45878,-2.21753 8.59284,-0.008 10.22346,0.19565 14.99726,1.87079 8.16589,2.86544 11.96619,5.28104 18.28099,11.62002 9.39736,9.43336 13.14184,18.71746 13.14184,32.58405 0,6.29808 -0.1971,7.70489 -1.12964,8.06274 -0.6213,0.23841 -16.6898,0.43348 -35.70776,0.43348 -24.86084,0 -34.57812,0.22278 -34.57812,0.79273 0,0.436 1.0196,2.7057 2.26579,5.04379 2.70925,5.08308 8.05978,10.12031 13.44562,12.65831 3.43448,1.61845 4.82491,1.84627 11.06941,1.81373 8.56643,-0.0446 13.43615,-1.65739 18.52184,-6.13399 l 3.31448,-2.91752 9.25673,3.00789 c 5.0912,1.65434 9.25672,3.26432 9.25672,3.57774 0,1.19584 -5.54734,7.20747 -9.80082,10.62112 -5.06635,4.06601 -11.6977,7.528 -17.36946,9.06797 -3.95212,1.07306 -16.28022,1.9533 -18.89273,1.34896 z m 28.52301,-56.02733 c 2.63445,-2.63674 -5.95288,-14.10075 -13.00116,-17.35642 -2.82899,-1.30674 -4.66421,-1.56182 -11.23692,-1.56182 -6.7859,0 -8.26634,0.21942 -10.87101,1.61124 -4.36989,2.33506 -7.61578,5.40797 -10.88731,10.30712 -3.29897,4.94025 -3.7021,7.45598 -1.27319,7.94525 0.88377,0.17802 11.6386,0.28071 23.89964,0.22821 18.83843,-0.0807 22.45969,-0.26253 23.36995,-1.17358 z"
       id="path22" />
    <path
       style="fill:#ffffff;fill-opacity:1;stroke:#a4a79e;stroke-width:0.714155;stroke-opacity:1"
       d="m 267.45114,364.80903 c -28.35326,-3.5383 -51.68153,-23.76158 -58.34664,-50.58072 -2.19767,-8.84303 -2.35593,-28.7872 -0.28902,-36.42192 5.6681,-20.93663 20.13774,-38.08641 38.8542,-46.05098 10.25528,-4.36402 15.7105,-5.35731 29.42256,-5.35731 13.97145,0 19.37279,1.02125 30.20612,5.71119 10.30202,4.45992 20.61544,12.83588 27.24893,22.12998 5.29002,7.41178 5.27275,7.29373 1.3157,8.99032 -1.88305,0.80735 -6.62895,2.58373 -10.54645,3.9475 l -7.12272,2.47958 -2.46906,-3.06669 c -6.96633,-8.65249 -15.98816,-14.75007 -25.77773,-17.42238 -7.14005,-1.94905 -19.55026,-1.79321 -26.42374,0.33183 -8.38077,2.59104 -13.36648,5.58373 -19.40425,11.64744 -11.20467,11.25281 -15.99265,27.03101 -13.15369,43.34638 2.84522,16.35131 11.66677,28.35507 25.79251,35.09666 6.18227,2.95053 11.37217,3.79175 20.69145,3.35385 12.67286,-0.59549 21.7132,-4.37735 30.04671,-12.56951 6.21898,-6.11349 12.30911,-17.38458 10.13803,-18.7626 -0.49841,-0.31634 -10.62763,-0.58009 -22.50939,-0.5861 l -21.6032,-0.0109 V 300.6594 290.30415 h 35.70776 35.70777 l -0.006,1.60685 c -0.0181,4.75002 -1.59282,18.43822 -2.59587,22.56394 -1.51413,6.2279 -5.86326,15.57043 -9.80678,21.06632 -3.64323,5.0774 -14.31792,15.64018 -19.01407,18.81475 -7.82133,5.28716 -15.74345,8.20275 -26.78083,9.85619 -6.64497,0.99544 -14.21154,1.22967 -19.28219,0.59687 z"
       id="path23" />
    <path
       style="fill:#ffffff;fill-opacity:1;stroke:#a4a79e;stroke-width:0.714155;stroke-opacity:1"
       d="m 139.26027,329.93973 v -36.06484 h -6.42739 -6.4274 v -8.92694 -8.92695 h 6.4274 6.42739 l 0.0162,-8.39132 c 0.009,-4.61523 0.32258,-12.33097 0.69704,-17.14609 0.86887,-11.17259 2.20386,-14.44029 8.18544,-20.03577 7.0137,-6.56097 11.39646,-8.06998 26.27346,-9.04609 l 6.96301,-0.45686 v 9.68419 c 0,7.25071 -0.22432,9.69386 -0.89269,9.72269 -5.15862,0.22251 -12.1552,1.41442 -14.3128,2.43827 -1.47208,0.69855 -3.39327,2.27492 -4.2693,3.50305 -1.49202,2.0917 -1.60753,3.10264 -1.82593,15.98045 l -0.23315,13.74748 h 10.76694 10.76693 v 8.92695 8.92694 H 170.6831 159.97078 v 36.06484 36.06484 h -10.35525 -10.35526 z"
       id="path24" />
    <path
       style="fill:#ffffff;fill-opacity:1;stroke:#a4a79e;stroke-width:0.714155;stroke-opacity:1"
       d="m 62.290675,366.76518 c -12.989626,-3.19106 -24.602707,-12.0186 -30.171635,-22.9346 -3.629403,-7.11422 -4.624063,-12.02245 -4.624063,-22.81779 0,-8.98623 0.222447,-11.01617 1.682578,-15.35434 6.246619,-18.55926 21.45476,-30.25485 41.011803,-31.5395 24.039752,-1.57911 45.465992,14.25774 49.435392,36.53935 4.19409,23.54294 -5.36378,43.21068 -25.733823,52.95382 -9.429157,4.51004 -21.267967,5.69131 -31.600252,3.15306 z M 84.515928,345.42775 C 94.988531,340.4715 100.1144,330.7851 99.04085,317.97987 c -0.805324,-9.60597 -6.520701,-17.7282 -15.359604,-21.82785 -3.346666,-1.55224 -5.048533,-1.87341 -9.766178,-1.84304 -7.674794,0.0494 -12.742299,2.03456 -17.740821,6.94982 -10.819758,10.63952 -11.048901,28.17536 -0.50956,38.9957 7.791667,7.99941 18.733797,9.96142 28.851241,5.17325 z"
       id="path25" />
  </g>
</svg>
